HIERARCHY
ROOT Hips
{
	OFFSET 173.408295 91.952423 -518.280273
	CHANNELS 6 Xposition Yposition Zposition Zrotation Yrotation Xrotation 
	JOINT LeftUpLeg
	{
		OFFSET 0.103459 1.857827 10.548504
		CHANNELS 3 Zrotation Yrotation Xrotation
		JOINT LeftLeg
		{
			OFFSET 43.500008 0.000000 0.000004
			CHANNELS 3 Zrotation Yrotation Xrotation
			JOINT LeftFoot
			{
				OFFSET 42.372192 0.000011 0.000000
				CHANNELS 3 Zrotation Yrotation Xrotation
				JOINT LeftToe
				{
					OFFSET 17.299973 -0.000013 -0.000010
					CHANNELS 3 Zrotation Yrotation Xrotation
					End Site
					{
						OFFSET 0.000000 0.000000 0.000000
					}
				}
			}
		}
	}
	JOINT RightUpLeg
	{
		OFFSET 0.103454 1.857830 -10.548500
		CHANNELS 3 Zrotation Yrotation Xrotation
		JOINT RightLeg
		{
			OFFSET 43.500038 -0.000038 0.000004
			CHANNELS 3 Zrotation Yrotation Xrotation
			JOINT RightFoot
			{
				OFFSET 42.372253 0.000019 0.000024
				CHANNELS 3 Zrotation Yrotation Xrotation
				JOINT RightToe
				{
					OFFSET 17.299988 -0.000007 0.000004
					CHANNELS 3 Zrotation Yrotation Xrotation
					End Site
					{
						OFFSET 0.000000 0.000000 0.000000
					}
				}
			}
		}
	}
	JOINT Spine
	{
		OFFSET 6.901963 -2.603744 0.000004
		CHANNELS 3 Zrotation Yrotation Xrotation
		JOINT Spine1
		{
			OFFSET 12.588104 0.000008 -0.000010
			CHANNELS 3 Zrotation Yrotation Xrotation
			JOINT Spine2
			{
				OFFSET 12.343202 -0.000005 0.000010
				CHANNELS 3 Zrotation Yrotation Xrotation
				JOINT Neck
				{
					OFFSET 25.832897 0.000000 0.000001
					CHANNELS 3 Zrotation Yrotation Xrotation
					JOINT Head
					{
						OFFSET 11.766611 -0.000006 -0.000000
						CHANNELS 3 Zrotation Yrotation Xrotation
						End Site
						{
							OFFSET 0.000000 0.000000 0.000000
						}
					}
				}
				JOINT LeftShoulder
				{
					OFFSET 19.745899 -1.480366 6.000108
					CHANNELS 3 Zrotation Yrotation Xrotation
					JOINT LeftArm
					{
						OFFSET 11.284111 -0.000018 -0.000015
						CHANNELS 3 Zrotation Yrotation Xrotation
						JOINT LeftForeArm
						{
							OFFSET 33.000050 -0.000005 0.000028
							CHANNELS 3 Zrotation Yrotation Xrotation
							JOINT LeftHand
							{
								OFFSET 25.200012 0.000000 0.000002
								CHANNELS 3 Zrotation Yrotation Xrotation
								End Site
								{
									OFFSET 0.000000 0.000000 0.000000
								}
							}
						}
					}
				}
				JOINT RightShoulder
				{
					OFFSET 19.746111 -1.480335 -6.000074
					CHANNELS 3 Zrotation Yrotation Xrotation
					JOINT RightArm
					{
						OFFSET 11.284151 0.000036 0.000001
						CHANNELS 3 Zrotation Yrotation Xrotation
						JOINT RightForeArm
						{
							OFFSET 33.000092 -0.000035 0.000022
							CHANNELS 3 Zrotation Yrotation Xrotation
							JOINT RightHand
							{
								OFFSET 25.199768 0.000178 0.000417
								CHANNELS 3 Zrotation Yrotation Xrotation
								End Site
								{
									OFFSET 0.000000 0.000000 0.000000
								}
							}
						}
					}
				}
			}
		}
	}
}
MOTION
Frames: 15
Frame Time: 0.033333
-1.073731 0.037138 0.175260 -101.904221 -37.499012 -45.587360 165.984879 63.657413 89.777527 122.896622 32.001675 -42.768902 -99.027290 31.504103 -69.199608 21.453779 0.003095 0.000000 -152.736786 -57.733570 156.754303 102.178268 -3.109869 14.221770 -110.987907 -56.039764 64.654167 21.456717 -0.003105 -0.000019 8.997104 -5.035282 -0.278252 7.913730 -10.756162 -1.061617 14.300264 -14.884560 6.015005 -60.943787 -59.026588 -37.397713 59.652340 33.005402 -147.129257 -44.047367 -83.072693 -112.937187 -45.679764 -32.483597 13.910913 116.188858 -0.371756 -38.209099 -24.635473 -16.343212 160.188400 103.039413 36.992226 -23.966345 -158.346283 -35.072796 -113.285187 28.842440 27.378990 -27.614498 -45.832260 -0.071968 -127.350471 
-1.973902 -0.017350 0.166745 -98.561058 -33.425453 -46.609585 167.630844 62.989632 92.016396 122.783821 31.646755 -42.769119 -99.693481 32.549816 -70.945572 21.453747 0.003096 0.000000 -153.292755 -57.267624 157.968948 102.763374 -3.004150 14.538505 -111.471817 -56.305141 65.031563 21.456745 -0.003105 -0.000020 10.306714 -4.908019 -0.506328 7.530478 -10.609779 -1.417525 13.165959 -14.527062 5.588519 -52.619400 -60.517063 -43.354916 61.330227 33.210728 -146.760635 -43.509216 -83.026741 -113.459671 -45.943707 -33.383312 13.955994 116.260376 -0.489983 -37.731647 -25.026371 -16.772629 159.902008 101.233948 36.924274 -24.820921 -158.427795 -35.412468 -112.805687 27.884148 26.144236 -27.515394 -45.371365 -0.283036 -126.850883 
-2.787737 -0.454887 -0.064223 -95.280846 -31.086611 -47.372120 168.163712 62.494553 92.173897 122.849594 30.664989 -42.468002 -100.426506 33.639515 -71.824242 21.453726 0.003097 0.000000 -153.293381 -56.826397 157.945282 103.000343 -2.943767 15.212618 -112.898865 -56.811924 66.436768 21.456774 -0.003106 -0.000020 11.550117 -4.766631 -0.889155 7.967987 -10.484181 -1.745935 13.050629 -14.251537 5.108553 -43.653679 -63.736671 -48.812302 65.574112 32.314209 -145.857193 -42.549534 -82.903389 -114.407402 -46.184834 -34.549740 13.528902 116.208092 -0.661749 -37.057884 -25.444986 -16.991909 159.403763 99.404442 36.607616 -25.627201 -158.223190 -35.899693 -112.511299 26.996758 24.656868 -27.400936 -44.026558 -0.729523 -126.627838 
-3.748524 -1.114627 -0.368497 -92.606689 -31.314514 -48.839947 169.288406 61.665028 93.323524 123.009361 29.245377 -41.932171 -100.927231 34.311466 -71.878670 21.453712 0.003098 0.000000 -153.209488 -56.569244 157.100250 103.025490 -2.767821 16.080711 -114.669838 -57.382267 67.816231 21.456793 -0.003105 -0.000020 12.902821 -4.811150 -1.065152 9.333928 -10.502500 -2.221061 13.771354 -14.117693 4.490925 -34.262459 -67.960030 -54.268063 71.401093 30.578291 -144.781418 -40.204117 -82.735092 -116.757080 -46.085388 -35.640171 12.685051 116.044678 -0.893418 -36.273170 -25.848984 -16.819353 158.748047 98.013138 36.166645 -26.121403 -157.668381 -36.569275 -112.475243 26.308975 23.191357 -27.344215 -42.246273 -1.037542 -126.789192 
-4.948615 -1.774916 -0.485032 -90.880768 -34.454872 -51.572418 170.423599 60.583107 94.625389 123.609123 27.707880 -41.338379 -101.025841 34.447090 -71.056252 21.453728 0.003098 -0.000000 -154.091751 -56.520634 157.033203 104.667831 -3.083460 18.407986 -115.710609 -54.879292 67.915703 21.456778 -0.003105 -0.000019 14.237671 -4.861636 -1.214196 11.373731 -10.739148 -2.430124 15.037844 -14.276974 4.146227 -25.896200 -72.357315 -59.496838 77.495720 28.686073 -143.828171 -38.744671 -82.524376 -118.176216 -45.693508 -36.796711 11.512299 115.905983 -1.218721 -35.567028 -26.114470 -16.719967 157.944580 97.454140 35.756672 -26.382746 -156.863251 -37.439976 -112.800995 25.798662 21.962353 -27.305527 -40.519943 -1.348742 -127.224983 
-6.298877 -2.399698 -0.153366 -89.098808 -39.510178 -56.871674 170.192261 59.239964 94.675697 124.637009 26.564514 -41.073868 -100.535561 33.780609 -69.296852 21.453735 0.003098 -0.000000 -155.835083 -57.073795 157.861496 106.881325 -3.743262 22.360575 -117.502754 -51.324886 68.441803 21.456745 -0.003106 -0.000019 15.232009 -4.918503 -0.914766 13.779042 -11.351896 -2.046772 16.427744 -15.043077 4.453278 -21.011446 -75.990692 -62.314579 82.759399 26.989134 -143.239212 -39.065834 -82.328056 -117.786781 -44.940170 -38.075672 10.142389 115.973763 -1.698430 -35.124992 -25.922346 -16.474588 156.807617 98.305893 35.314816 -26.289507 -156.001434 -38.508801 -113.493042 25.443129 21.265985 -27.567627 -39.427700 -1.695517 -127.705093 
-7.645843 -2.955873 0.603262 -85.965683 -45.846298 -63.818123 169.444382 58.523735 94.322945 126.026711 26.191828 -40.821327 -99.447723 32.288132 -66.680344 21.453720 0.003097 0.000000 -159.559845 -59.009975 160.986771 106.973450 -5.074443 22.604372 -119.370689 -50.217331 69.070831 21.456680 -0.003106 -0.000019 15.770450 -5.537014 -0.356511 16.309418 -12.141890 -1.268937 17.794502 -15.772817 5.252743 -21.643898 -77.942421 -61.043869 86.937828 25.631359 -142.846664 -39.045757 -81.972336 -117.692215 -43.616268 -39.178928 8.372750 116.320885 -2.092385 -34.962002 -25.769770 -16.594519 155.720734 100.306664 34.834171 -25.938734 -155.527679 -39.563213 -114.306023 25.425909 20.794329 -28.235363 -39.456654 -1.616092 -128.059311 
-8.946797 -3.135673 1.601062 -81.954079 -52.430511 -70.427109 170.485657 58.805489 95.201172 127.511566 25.899513 -40.854820 -98.427643 30.590397 -63.573620 21.453712 0.003097 0.000000 -164.053482 -60.542938 166.222900 106.429047 -6.775208 22.159735 -119.499153 -49.906403 68.915573 21.456627 -0.003106 -0.000020 16.371168 -6.221040 0.322896 18.720434 -12.761219 -0.346197 18.873531 -16.069933 6.106819 -28.437735 -78.425674 -55.251755 89.781509 24.712656 -142.659058 -35.687534 -81.547562 -120.875465 -42.095417 -40.156757 6.620349 116.855705 -2.465214 -35.080860 -25.667282 -17.330540 154.625397 102.840858 34.572685 -25.711485 -155.450500 -40.500351 -115.140198 25.915308 20.070885 -28.789583 -40.727093 -1.110759 -127.825279 
-10.125120 -3.138779 2.476200 -75.120346 -58.121513 -77.703735 173.511978 59.307671 98.174065 129.091812 25.826624 -40.812092 -97.543564 28.941088 -60.672375 21.453712 0.003097 0.000000 -166.572662 -61.977528 170.804840 106.035957 -7.978336 22.049376 -120.545425 -50.537544 71.422264 21.456541 -0.003106 -0.000019 16.839077 -6.427722 0.687857 21.057613 -12.954893 0.462660 19.996601 -15.770088 7.083221 -43.002953 -77.856438 -42.413589 91.213364 24.156044 -142.583374 -32.288441 -81.021667 -124.081612 -40.709316 -41.075207 4.994606 117.671242 -2.668339 -35.533337 -25.526222 -18.268719 153.451004 105.101006 34.344845 -25.747826 -156.074921 -41.466713 -115.754776 26.202755 19.073734 -29.636448 -42.993088 -0.503654 -127.022453 
-11.255450 -3.329664 3.114011 -64.716812 -62.862030 -85.933746 177.159286 60.084011 101.893494 130.996689 26.080664 -40.506172 -97.156532 27.852896 -58.596054 21.453749 0.003097 0.000000 -167.505219 -63.097694 174.423203 105.817413 -8.496443 22.516687 -118.275848 -52.315365 71.935287 21.456434 -0.003105 -0.000019 17.441317 -6.258487 0.724232 23.214672 -12.407192 1.039150 21.193579 -14.682398 7.858189 -57.921673 -75.835564 -29.570595 91.524086 23.850847 -142.361084 -29.034849 -80.342247 -127.048424 -39.491379 -41.938259 3.525261 119.062485 -2.631135 -36.420513 -25.383312 -19.211269 152.445312 106.808205 34.372562 -26.543871 -157.394806 -42.450340 -116.140038 25.684101 17.587997 -30.658073 -45.164722 0.001453 -125.972572 
-12.438957 -3.575379 3.692765 -52.032166 -64.811897 -93.429176 -178.924225 61.086224 106.520340 132.647797 25.755072 -40.266933 -98.093353 27.798788 -57.660107 21.453823 0.003098 -0.000001 -171.193954 -64.223396 178.967484 104.957222 -8.411382 20.989107 -122.584389 -55.430370 78.206314 21.456341 -0.003105 -0.000019 17.473021 -5.375100 0.164721 25.212891 -10.928048 1.013123 22.846386 -13.010470 8.004102 -69.489525 -73.333405 -19.821642 90.684959 23.996788 -141.889359 -25.676338 -79.956741 -130.215179 -38.096382 -42.749184 2.069876 120.975250 -2.740987 -37.888172 -24.750340 -19.685133 151.553207 107.911018 34.874737 -28.158396 -158.981232 -43.414486 -116.642357 23.858521 15.862809 -32.079723 -46.813541 0.754070 -124.526772 
-13.646289 -4.073845 4.380828 -39.731991 -64.932388 -101.115440 -178.093155 62.659920 108.460831 134.118256 26.171041 -39.902245 -100.110344 29.362347 -58.257965 21.453915 0.003098 -0.000001 -172.447266 -66.329422 -178.279022 102.917633 -7.138503 17.739552 -136.918884 -62.062988 94.320915 21.456232 -0.003105 -0.000019 17.680676 -4.824574 -0.070135 27.026775 -9.607928 0.958872 24.277493 -11.583178 8.034255 -75.863525 -70.355888 -14.431060 89.813934 24.801079 -140.546799 -23.006317 -79.110085 -132.543289 -36.392502 -43.543625 0.157948 123.557381 -2.505419 -39.843094 -23.350491 -19.818819 150.718887 108.420639 35.578800 -30.499331 -160.809143 -44.208622 -117.510460 20.792038 13.466331 -33.583370 -47.856888 1.620212 -122.936104 
-14.932099 -4.498235 5.274631 -25.794575 -64.164444 -109.567551 -176.765167 63.559994 111.311180 135.592041 26.627140 -39.528599 -103.542816 32.276909 -60.157398 21.454020 0.003099 -0.000001 -173.102722 -67.920456 -176.301285 102.184143 -6.785202 17.366024 -150.818024 -60.819233 107.207222 21.456133 -0.003105 -0.000019 19.047979 -3.548503 -0.903304 28.502495 -7.675960 0.799638 24.846025 -9.974373 8.031882 -77.827858 -67.397888 -13.567163 90.427437 26.326853 -137.683945 -21.628069 -78.255554 -133.314789 -34.967648 -44.266197 -2.079157 126.600243 -1.921860 -42.199184 -21.762873 -20.041931 150.076752 108.485146 36.449593 -33.377804 -162.842712 -44.562542 -118.419708 16.646645 9.937820 -35.090107 -48.275391 2.297569 -121.706085 
-16.216679 -4.477733 6.257132 -14.237265 -62.027096 -117.268250 -178.678925 64.139153 111.555664 137.085678 27.459013 -39.279877 -107.760025 35.963467 -62.522190 21.454103 0.003099 0.000000 -168.425522 -70.784462 -178.410599 103.900711 -6.648467 17.984312 -156.233978 -60.096176 111.472366 21.456051 -0.003105 -0.000019 20.490364 -2.886053 -0.762731 29.652800 -5.964782 0.639588 25.222555 -7.672126 8.066868 -79.947289 -64.600777 -12.632412 93.155602 28.569590 -132.947754 -22.741383 -77.055862 -131.218262 -32.651012 -44.726559 -5.753398 130.118027 -0.400399 -44.765503 -19.999889 -20.382895 149.304092 108.296791 36.922371 -35.867119 -165.430710 -44.496178 -118.457619 12.179778 5.639581 -36.596642 -48.439541 2.891127 -120.665871 
-17.302189 -4.131692 7.203624 -4.828435 -58.828655 -122.245186 177.823761 63.794292 110.068039 138.715759 27.672617 -39.522919 -112.008041 39.120094 -64.265602 21.454187 0.003099 0.000000 -163.324249 -73.991951 179.500702 106.190437 -6.739030 18.738897 -161.665344 -60.095852 115.820068 21.455971 -0.003106 -0.000019 21.358549 -1.720522 -1.088802 30.727236 -3.933079 0.948218 25.615591 -5.779984 8.298108 -81.166077 -61.776058 -13.232002 98.706192 30.799032 -126.156357 -21.916876 -76.050194 -131.240906 -30.314011 -45.097343 -9.984977 133.637329 1.061055 -47.807877 -18.502907 -20.915501 148.571106 109.969002 37.259041 -38.003876 -167.462662 -43.874149 -119.272018 7.672857 0.410427 -37.865540 -48.234810 3.131371 -120.289406 
